<?xml version="1.0" encoding="UTF-8" standalone="no"?>
<!-- Created with Inkscape (http://www.inkscape.org/) -->

<svg
   xmlns:dc="http://purl.org/dc/elements/1.1/"
   xmlns:cc="http://creativecommons.org/ns#"
   xmlns:rdf="http://www.w3.org/1999/02/22-rdf-syntax-ns#"
   xmlns:svg="http://www.w3.org/2000/svg"
   xmlns="http://www.w3.org/2000/svg"
   xmlns:sodipodi="http://sodipodi.sourceforge.net/DTD/sodipodi-0.dtd"
   xmlns:inkscape="http://www.inkscape.org/namespaces/inkscape"
   width="744.09448819"
   height="1052.3622047"
   id="svg2"
   version="1.1"
   inkscape:version="0.48.3.1 r9886"
   sodipodi:docname="SharingNearlySamePointsOfView.svg">
  <defs
     id="defs4">
    <inkscape:perspective
       sodipodi:type="inkscape:persp3d"
       inkscape:vp_x="-222.818 : 705.54429 : 1"
       inkscape:vp_y="0 : 417.92428 : 0"
       inkscape:vp_z="164.26043 : 700.25749 : 1"
       inkscape:persp3d-origin="81.097735 : 632.243 : 1"
       id="perspective2985" />
    <inkscape:perspective
       sodipodi:type="inkscape:persp3d"
       inkscape:vp_x="-954.4826 : -11.981068 : 1"
       inkscape:vp_y="0 : 2616.2467 : 0"
       inkscape:vp_z="1657.2374 : 814.92305 : 1"
       inkscape:persp3d-origin="948.05946 : -470.85428 : 1"
       id="perspective2985-1" />
    <inkscape:perspective
       sodipodi:type="inkscape:persp3d"
       inkscape:vp_x="122.74823 : 902.97611 : 1"
       inkscape:vp_y="373.5334 : 187.43934 : 0"
       inkscape:vp_z="291.62793 : 554.64105 : 1"
       inkscape:persp3d-origin="193.53924 : 598.46587 : 1"
       id="perspective2985-3" />
  </defs>
  <sodipodi:namedview
     id="base"
     pagecolor="#ffffff"
     bordercolor="#666666"
     borderopacity="1.0"
     inkscape:pageopacity="0.0"
     inkscape:pageshadow="2"
     inkscape:zoom="1.979899"
     inkscape:cx="277.73364"
     inkscape:cy="810.08097"
     inkscape:document-units="px"
     inkscape:current-layer="layer1"
     showgrid="false"
     inkscape:window-width="1920"
     inkscape:window-height="1056"
     inkscape:window-x="0"
     inkscape:window-y="24"
     inkscape:window-maximized="1"
     showguides="true"
     inkscape:guide-bbox="true" />
  <metadata
     id="metadata7">
    <rdf:RDF>
      <cc:Work
         rdf:about="">
        <dc:format>image/svg+xml</dc:format>
        <dc:type
           rdf:resource="http://purl.org/dc/dcmitype/StillImage" />
        <dc:title />
      </cc:Work>
    </rdf:RDF>
  </metadata>
  <g
     inkscape:label="Layer 1"
     inkscape:groupmode="layer"
     id="layer1">
    <path
       style="fill:none;stroke:#9c9c9c;stroke-width:1;stroke-linecap:round;stroke-linejoin:round;stroke-miterlimit:4;stroke-opacity:1;stroke-dasharray:none"
       d="m 91.948716,261.96442 -0.825103,-5.98726 c -5.91e-4,-0.005 0.0027,-0.008 0.0077,-0.0101 L 258.69971,186.36836 c 0.004,-0.001 0.008,0.004 0.009,0.008 l 19.86651,74.80915 c 0.001,0.004 -0.003,0.01 -0.009,0.01 l -186.608474,0.77676 c -0.0043,-3e-5 -0.006,-0.0135 -0.0091,-0.008 z"
       id="rect3771"
       inkscape:connector-curvature="0"
       sodipodi:nodetypes="cssssssssc" />
    <path
       style="fill:none;stroke:#9c9c9c;stroke-width:1;stroke-linecap:round;stroke-linejoin:round;stroke-miterlimit:4;stroke-opacity:1;stroke-dasharray:none"
       d="m 159.87183,148.99084 16.4299,-24.33181 c 0.002,-0.005 0.008,-0.005 0.0122,-0.003 l 113.01049,35.17918 c 0.004,0.002 0.005,0.008 0.002,0.0122 l -43.17567,74.8972 c -0.002,0.005 -0.009,0.006 -0.0127,0.002 l -86.26377,-85.74383 c -0.003,-0.002 1.6e-4,-0.007 -0.002,-0.0122 z"
       id="rect3771-7"
       inkscape:connector-curvature="0"
       sodipodi:nodetypes="cssssssssc" />
    <path
       sodipodi:type="arc"
       style="fill:none;stroke:#9c9c9c;stroke-width:1.79999995;stroke-linecap:round;stroke-linejoin:round;stroke-miterlimit:4;stroke-opacity:1;stroke-dasharray:none"
       id="path3790"
       sodipodi:cx="122.481"
       sodipodi:cy="91.454582"
       sodipodi:rx="12.374369"
       sodipodi:ry="11.869292"
       d="m 134.85537,91.454582 a 12.374369,11.869292 0 1 1 -24.74874,0 12.374369,11.869292 0 1 1 24.74874,0 z"
       transform="matrix(0.92939027,-0.36909852,0.36909852,0.92939027,-76.163107,223.19174)" />
    <path
       transform="matrix(0.49928556,-0.19828651,0.28525584,0.71827436,-10.279271,220.46621)"
       sodipodi:type="arc"
       style="fill:#898989;fill-opacity:1;stroke:#9c9c9c;stroke-opacity:1"
       id="path3790-6"
       sodipodi:cx="122.481"
       sodipodi:cy="91.454582"
       sodipodi:rx="12.374369"
       sodipodi:ry="11.869292"
       d="m 134.85537,91.454582 a 12.374369,11.869292 0 1 1 -24.74874,0 12.374369,11.869292 0 1 1 24.74874,0 z" />
    <path
       sodipodi:type="arc"
       style="fill:none;stroke:#9c9c9c;stroke-width:1.79999995;stroke-linecap:round;stroke-linejoin:round;stroke-miterlimit:4;stroke-opacity:1;stroke-dasharray:none"
       id="path3790-3"
       sodipodi:cx="122.481"
       sodipodi:cy="91.454582"
       sodipodi:rx="12.374369"
       sodipodi:ry="11.869292"
       d="m 134.85537,91.454582 a 12.374369,11.869292 0 1 1 -24.74874,0 12.374369,11.869292 0 1 1 24.74874,0 z"
       transform="matrix(0.94452353,0.32844376,-0.32844376,0.94452353,59.508891,-2.5546789)" />
    <path
       transform="matrix(0.50741541,0.17644604,-0.25383602,0.72997001,111.13895,38.462937)"
       sodipodi:type="arc"
       style="fill:#898989;fill-opacity:1;stroke:none"
       id="path3790-6-7"
       sodipodi:cx="122.481"
       sodipodi:cy="91.454582"
       sodipodi:rx="12.374369"
       sodipodi:ry="11.869292"
       d="m 134.85537,91.454582 a 12.374369,11.869292 0 1 1 -24.74874,0 12.374369,11.869292 0 1 1 24.74874,0 z" />
    <g
       sodipodi:type="inkscape:box3d"
       style="fill:#ffffff;fill-opacity:1;stroke:#9c9c9c;stroke-width:3.29999995;stroke-linecap:round;stroke-linejoin:round;stroke-miterlimit:4;stroke-opacity:1;stroke-dasharray:none"
       id="g3000"
       inkscape:perspectiveID="#perspective2985-3"
       inkscape:corner0="1.6471917 : 1.0748318 : 0 : 1"
       inkscape:corner7="1.3660747 : 0.92544944 : 0.20695051 : 1">
      <path
         sodipodi:type="inkscape:box3dside"
         id="path3012"
         style="fill:#ffffff;fill-opacity:1;stroke:#9c9c9c;stroke-width:2.99201179;stroke-opacity:1"
         inkscape:box3dsidetype="11"
         d="m 300.46409,210.74692 19.41642,6.70401 -21.68626,10.88218 -17.28045,-7.77584 z" />
      <path
         sodipodi:type="inkscape:box3dside"
         id="path3002"
         style="fill:#ffffff;fill-opacity:1;stroke:#9c9c9c;stroke-width:2.99201179;stroke-opacity:1"
         inkscape:box3dsidetype="6"
         d="m 301.15487,188.31203 -21.07867,10.5773 0.8376,21.66794 19.55029,-9.81035 z" />
      <path
         sodipodi:type="inkscape:box3dside"
         id="path3004"
         style="fill:#ffffff;fill-opacity:1;stroke:#9c9c9c;stroke-width:2.99201179;stroke-opacity:1"
         inkscape:box3dsidetype="5"
         d="m 301.15487,188.31203 21.19677,4.62486 -2.47113,24.51404 -19.41642,-6.70401 z" />
      <path
         sodipodi:type="inkscape:box3dside"
         id="path3010"
         style="fill:#ffffff;fill-opacity:1;stroke:#9c9c9c;stroke-width:2.99201179;stroke-opacity:1"
         inkscape:box3dsidetype="13"
         d="m 280.0762,198.88933 18.69238,5.88156 -0.57433,23.56222 -17.28045,-7.77584 z" />
      <path
         sodipodi:type="inkscape:box3dside"
         id="path3008"
         style="fill:#ffffff;fill-opacity:1;stroke:#9c9c9c;stroke-width:2.99201179;stroke-opacity:1"
         inkscape:box3dsidetype="14"
         d="m 322.35164,192.93689 -23.58306,11.834 -0.57433,23.56222 21.68626,-10.88218 z" />
      <path
         sodipodi:type="inkscape:box3dside"
         id="path3006"
         style="fill:#ffffff;fill-opacity:1;stroke:#9c9c9c;stroke-width:2.99201179;stroke-opacity:1"
         inkscape:box3dsidetype="3"
         d="m 301.15487,188.31203 21.19677,4.62486 -23.58306,11.834 -18.69238,-5.88156 z" />
    </g>
    <path
       style="fill:#e9c6af;fill-opacity:1;stroke:none"
       d="m 244.1699,231.64364 c -1.10773,-0.93113 -7.6801,-7.41039 -14.60528,-14.39834 -10.65686,-10.7535 -12.48468,-12.74955 -11.89785,-12.99287 0.38135,-0.15811 9.57829,-3.98061 20.43765,-8.49445 10.85938,-4.51384 19.82581,-8.20876 19.92543,-8.21092 0.14258,-0.003 4.53767,15.96585 4.62192,16.79303 0.0117,0.11436 -3.56849,6.43497 -7.95586,14.0457 -4.38739,7.61074 -8.09741,14.08816 -8.24451,14.39427 -0.16985,0.35345 -1.00239,-0.0612 -2.2815,-1.13642 z"
       id="path3034"
       inkscape:connector-curvature="0" />
    <text
       xml:space="preserve"
       style="font-size:40px;font-style:normal;font-weight:normal;line-height:125%;letter-spacing:0px;word-spacing:0px;fill:#000000;fill-opacity:1;stroke:none;font-family:Sans"
       x="272.23611"
       y="104.33402"
       id="text3057"
       sodipodi:linespacing="125%"><tspan
         sodipodi:role="line"
         id="tspan3059"
         x="272.23611"
         y="104.33402"
         style="font-size:12px">Überschneidung bei </tspan><tspan
         sodipodi:role="line"
         x="272.23611"
         y="119.33402"
         style="font-size:12px"
         id="tspan3064">den Blickwinkeln</tspan></text>
    <path
       style="fill:none;stroke:#000000;stroke-width:1px;stroke-linecap:butt;stroke-linejoin:miter;stroke-opacity:1"
       d="m 325.05867,124.78964 c -0.22534,23.70837 -52.65998,81.39959 -76.0561,81.0647"
       id="path3061"
       inkscape:connector-curvature="0"
       sodipodi:nodetypes="cc" />
  </g>
</svg>
