<?xml version="1.0" encoding="UTF-8" standalone="no"?>
<!-- Created with Inkscape (http://www.inkscape.org/) -->

<svg
   xmlns:dc="http://purl.org/dc/elements/1.1/"
   xmlns:cc="http://creativecommons.org/ns#"
   xmlns:rdf="http://www.w3.org/1999/02/22-rdf-syntax-ns#"
   xmlns:svg="http://www.w3.org/2000/svg"
   xmlns="http://www.w3.org/2000/svg"
   xmlns:sodipodi="http://sodipodi.sourceforge.net/DTD/sodipodi-0.dtd"
   xmlns:inkscape="http://www.inkscape.org/namespaces/inkscape"
   width="744.09448819"
   height="1052.3622047"
   id="svg2"
   version="1.1"
   inkscape:version="0.48.3.1 r9886"
   sodipodi:docname="DimensionelementAnalogy_ViewedObjectItself.svg">
  <defs
     id="defs4">
    <inkscape:perspective
       sodipodi:type="inkscape:persp3d"
       inkscape:vp_x="-0.48882703 : 926.85759 : 1"
       inkscape:vp_y="0 : 392.32567 : 0"
       inkscape:vp_z="279.87729 : 926.85759 : 1"
       inkscape:persp3d-origin="139.69423 : 858.04614 : 1"
       id="perspective4239" />
    <inkscape:perspective
       sodipodi:type="inkscape:persp3d"
       inkscape:vp_x="652.30334 : 926.77232 : 1"
       inkscape:vp_y="0 : 392.32567 : 0"
       inkscape:vp_z="932.66946 : 926.77232 : 1"
       inkscape:persp3d-origin="792.4864 : 857.96087 : 1"
       id="perspective4239-3" />
  </defs>
  <sodipodi:namedview
     id="base"
     pagecolor="#ffffff"
     bordercolor="#666666"
     borderopacity="1.0"
     inkscape:pageopacity="0.0"
     inkscape:pageshadow="2"
     inkscape:zoom="1.4"
     inkscape:cx="165.23263"
     inkscape:cy="951.76089"
     inkscape:document-units="px"
     inkscape:current-layer="layer1"
     showgrid="false"
     inkscape:window-width="1366"
     inkscape:window-height="716"
     inkscape:window-x="0"
     inkscape:window-y="24"
     inkscape:window-maximized="1"
     showguides="true"
     inkscape:guide-bbox="true" />
  <metadata
     id="metadata7">
    <rdf:RDF>
      <cc:Work
         rdf:about="">
        <dc:format>image/svg+xml</dc:format>
        <dc:type
           rdf:resource="http://purl.org/dc/dcmitype/StillImage" />
        <dc:title></dc:title>
      </cc:Work>
    </rdf:RDF>
  </metadata>
  <g
     inkscape:label="Layer 1"
     inkscape:groupmode="layer"
     id="layer1">
    <path
       sodipodi:type="arc"
       style="fill:#ffffff;fill-opacity:1;stroke:#000000;stroke-width:1.5;stroke-linecap:round;stroke-linejoin:round;stroke-miterlimit:4;stroke-opacity:1;stroke-dasharray:none"
       id="path2987"
       sodipodi:cx="500.35715"
       sodipodi:cy="45.219326"
       sodipodi:rx="31.785715"
       sodipodi:ry="27.142857"
       d="m 532.14286,45.219326 a 31.785715,27.142857 0 1 1 -63.57143,0 31.785715,27.142857 0 1 1 63.57143,0 z"
       transform="translate(-292.01819,4.2857143)" />
    <path
       transform="matrix(0.45326822,0,0,0.68301383,-35.384401,18.262472)"
       sodipodi:type="arc"
       style="fill:#000000;fill-opacity:1;stroke:none"
       id="path2987-7"
       sodipodi:cx="500.35715"
       sodipodi:cy="45.219326"
       sodipodi:rx="31.785715"
       sodipodi:ry="27.142857"
       d="m 532.14286,45.219326 a 31.785715,27.142857 0 1 1 -63.57143,0 31.785715,27.142857 0 1 1 63.57143,0 z" />
    <text
       xml:space="preserve"
       style="font-size:40px;font-style:normal;font-weight:normal;line-height:125%;letter-spacing:0px;word-spacing:0px;fill:#000000;fill-opacity:1;stroke:none;font-family:Sans"
       x="283.7388"
       y="43.888786"
       id="text3865-0"
       sodipodi:linespacing="125%"><tspan
         sodipodi:role="line"
         x="283.7388"
         y="43.888786"
         id="tspan3869-8"
         style="font-size:16px">Auge des </tspan><tspan
         sodipodi:role="line"
         x="283.7388"
         y="63.888783"
         style="font-size:16px"
         id="tspan3903">&quot;Betrachters&quot;</tspan></text>
    <text
       xml:space="preserve"
       style="font-size:40px;font-style:normal;font-weight:normal;line-height:125%;letter-spacing:0px;word-spacing:0px;fill:#000000;fill-opacity:1;stroke:none;font-family:Sans"
       x="584.37323"
       y="105.34417"
       id="text3897"
       sodipodi:linespacing="125%"><tspan
         sodipodi:role="line"
         id="tspan3899"
         x="584.37323"
         y="105.34417"></tspan><tspan
         sodipodi:role="line"
         id="tspan3901"
         x="584.37323"
         y="155.34418" /></text>
    <text
       xml:space="preserve"
       style="font-size:40px;font-style:normal;font-weight:normal;line-height:125%;letter-spacing:0px;word-spacing:0px;fill:#000000;fill-opacity:1;stroke:none;font-family:Sans"
       x="35.131081"
       y="-17.854366"
       id="text3865-6"
       sodipodi:linespacing="125%"><tspan
         sodipodi:role="line"
         x="35.131081"
         y="-17.854366"
         id="tspan3869-4"
         style="font-size:16px">Dimensionselemente: <tspan
   style="font-weight:bold;-inkscape-font-specification:Sans Bold"
   id="tspan4890">x</tspan>, <tspan
   style="font-weight:bold;-inkscape-font-specification:Sans Bold"
   id="tspan4888">y</tspan> und <tspan
   style="font-weight:bold;-inkscape-font-specification:Sans Bold"
   id="tspan4886">z</tspan></tspan></text>
    <rect
       style="fill:#000000;fill-opacity:1;stroke:none"
       id="rect2985-8-5-9-4"
       width="45.797874"
       height="2.178571"
       x="34.777"
       y="-58.431568"
       ry="0.00015119329"
       transform="matrix(0,1,-1,0,0,0)" />
    <path
       style="fill:#000000;fill-opacity:1;stroke:none"
       d="m 51.022745,40.894309 c -2e-5,0 -1e-5,-7e-5 0,-1e-4 l 6.31951,-10.10761 c 2e-5,-3e-5 5e-5,-3e-5 7e-5,0 l 6.31951,10.1076 c 2e-5,3e-5 2e-5,1.1e-4 0,1.1e-4 -12.13435,-0.23079 0.24196,-0.3102 -12.63909,0 z"
       id="rect3986"
       inkscape:connector-curvature="0"
       sodipodi:nodetypes="csssscc" />
    <g
       sodipodi:type="inkscape:box3d"
       style="fill:none;stroke:#000000;stroke-width:1.39999998;stroke-miterlimit:4;stroke-opacity:1;stroke-dasharray:none"
       id="g4255"
       inkscape:perspectiveID="#perspective4239"
       inkscape:corner0="1.0236702 : 0.56605821 : 0 : 1"
       inkscape:corner7="0.70512952 : 0.47011591 : 0.25 : 1">
      <path
         sodipodi:type="inkscape:box3dside"
         id="path4267"
         style="fill:none;stroke:#000000;stroke-width:1.39999998;stroke-miterlimit:4;stroke-opacity:1;stroke-dasharray:none"
         inkscape:box3dsidetype="11"
         d="m 91.993621,58.094765 15.067759,-10.982788 0,19.252242 -15.067759,8.285553 z" />
      <path
         sodipodi:type="inkscape:box3dside"
         id="path4257"
         style="fill:none;stroke:#000000;stroke-width:1.39999998;stroke-miterlimit:4;stroke-opacity:1;stroke-dasharray:none"
         inkscape:box3dsidetype="6"
         d="m 68.782864,49.767095 0,18.600179 23.210757,6.282498 0,-16.555007 z" />
      <path
         sodipodi:type="inkscape:box3dside"
         id="path4259"
         style="fill:none;stroke:#000000;stroke-width:1.39999998;stroke-miterlimit:4;stroke-opacity:1;stroke-dasharray:none"
         inkscape:box3dsidetype="5"
         d="M 68.782864,49.767095 81.723729,35.618332 107.06138,47.111977 91.993621,58.094765 z" />
      <path
         sodipodi:type="inkscape:box3dside"
         id="path4265"
         style="fill:none;stroke:#000000;stroke-width:1.39999998;stroke-miterlimit:4;stroke-opacity:1;stroke-dasharray:none"
         inkscape:box3dsidetype="13"
         d="m 68.782864,68.367274 12.940865,-10.674005 25.337651,8.67095 -15.067759,8.285553 z" />
      <path
         sodipodi:type="inkscape:box3dside"
         id="path4263"
         style="fill:none;stroke:#000000;stroke-width:1.39999998;stroke-miterlimit:4;stroke-opacity:1;stroke-dasharray:none"
         inkscape:box3dsidetype="14"
         d="m 81.723729,35.618332 0,22.074937 25.337651,8.67095 0,-19.252242 z" />
      <path
         sodipodi:type="inkscape:box3dside"
         id="path4261"
         style="fill:none;stroke:#000000;stroke-width:1.39999998;stroke-miterlimit:4;stroke-opacity:1;stroke-dasharray:none"
         inkscape:box3dsidetype="3"
         d="m 68.782864,49.767095 12.940865,-14.148763 0,22.074937 -12.940865,10.674005 z" />
    </g>
    <rect
       style="fill:#000000;fill-opacity:1;stroke:none"
       id="rect2985-8-5-9-4-4"
       width="45.797874"
       height="2.178571"
       x="-120.43343"
       y="-65.191032"
       ry="0.00015119329"
       transform="matrix(-0.97130685,-0.23782979,0.23782979,-0.97130685,0,0)" />
    <path
       style="fill:#000000;fill-opacity:1;stroke:none"
       d="m 97.293696,83.312041 c 5e-6,-2e-5 7.1e-5,7e-6 9.8e-5,2.4e-5 l 8.314626,8.542074 c 2e-5,2.6e-5 1e-5,5.5e-5 -2e-5,6.8e-5 l -11.320549,3.734295 c -3.4e-5,1.2e-5 -1.11e-4,-7e-6 -1.07e-4,-2.6e-5 3.110078,-11.731289 0.243754,0.308792 3.005952,-12.276435 z"
       id="rect3986-8"
       inkscape:connector-curvature="0"
       sodipodi:nodetypes="csssscc" />
    <rect
       style="fill:#000000;fill-opacity:1;stroke:none"
       id="rect2985-8-5-9-4-4-0"
       width="45.797874"
       height="2.178571"
       x="-51.703541"
       y="-98.922615"
       ry="0.00015119329"
       transform="matrix(0.77330446,-0.63403487,-0.63403487,-0.77330446,0,0)" />
    <path
       style="fill:#000000;fill-opacity:1;stroke:none"
       d="m 22.770897,99.671298 c -1.3e-5,-1.6e-5 -6.1e-5,3.7e-5 -7.8e-5,6.4e-5 l -3.80947,11.295478 c -1.1e-5,4e-5 8e-6,6e-5 4.4e-5,6e-5 l 11.823042,-1.52167 c 3.6e-5,0 9.7e-5,-5e-5 8.6e-5,-7e-5 -7.872072,-9.23721 -0.08647,0.38379 -8.013624,-9.773862 z"
       id="rect3986-8-1"
       inkscape:connector-curvature="0"
       sodipodi:nodetypes="csssscc" />
    <text
       xml:space="preserve"
       style="font-size:40px;font-style:normal;font-weight:normal;line-height:125%;letter-spacing:0px;word-spacing:0px;fill:#000000;fill-opacity:1;stroke:none;font-family:Sans"
       x="52.374191"
       y="25.615009"
       id="text3865-6-5"
       sodipodi:linespacing="125%"><tspan
         sodipodi:role="line"
         x="52.374191"
         y="25.615009"
         id="tspan3869-4-1"
         style="font-size:16px">x</tspan></text>
    <text
       xml:space="preserve"
       style="font-size:40px;font-style:normal;font-weight:normal;line-height:125%;letter-spacing:0px;word-spacing:0px;fill:#000000;fill-opacity:1;stroke:none;font-family:Sans"
       x="108.91907"
       y="97.950127"
       id="text3865-6-5-9"
       sodipodi:linespacing="125%"><tspan
         sodipodi:role="line"
         x="108.91907"
         y="97.950127"
         id="tspan3869-4-1-9"
         style="font-size:16px">y</tspan></text>
    <text
       xml:space="preserve"
       style="font-size:40px;font-style:normal;font-weight:normal;line-height:125%;letter-spacing:0px;word-spacing:0px;fill:#000000;fill-opacity:1;stroke:none;font-family:Sans"
       x="8.1227608"
       y="122.21597"
       id="text3865-6-5-9-8"
       sodipodi:linespacing="125%"><tspan
         sodipodi:role="line"
         x="8.1227608"
         y="122.21597"
         id="tspan3869-4-1-9-7"
         style="font-size:16px">z</tspan></text>
  </g>
</svg>
