<?xml version="1.0" encoding="UTF-8" standalone="no"?>
<!-- Created with Inkscape (http://www.inkscape.org/) -->

<svg
   xmlns:dc="http://purl.org/dc/elements/1.1/"
   xmlns:cc="http://creativecommons.org/ns#"
   xmlns:rdf="http://www.w3.org/1999/02/22-rdf-syntax-ns#"
   xmlns:svg="http://www.w3.org/2000/svg"
   xmlns="http://www.w3.org/2000/svg"
   xmlns:xlink="http://www.w3.org/1999/xlink"
   xmlns:sodipodi="http://sodipodi.sourceforge.net/DTD/sodipodi-0.dtd"
   xmlns:inkscape="http://www.inkscape.org/namespaces/inkscape"
   width="744.09448819"
   height="1052.3622047"
   id="svg2"
   version="1.1"
   inkscape:version="0.48.3.1 r9886"
   sodipodi:docname="CaseDifferentiation_2SameDim_Cross_1DimSomeDePairPartnered_Circle.svg">
  <defs
     id="defs4">
    <pattern
       inkscape:collect="always"
       xlink:href="#pattern3012-6"
       id="pattern3148"
       patternTransform="matrix(6.4548816,0,0,3.6930219,43.769836,152.38962)" />
    <pattern
       patternTransform="matrix(10,0,0,10,-6.5774636,-10.716251)"
       id="pattern3020"
       xlink:href="#Strips1_1.5"
       inkscape:collect="always" />
    <pattern
       inkscape:stockid="Stripes 1:1.5"
       id="Strips1_1.5"
       patternTransform="translate(0,0) scale(10,10)"
       height="1"
       width="2.5"
       patternUnits="userSpaceOnUse"
       inkscape:collect="always">
      <rect
         id="rect4493"
         height="2"
         width="1"
         y="-0.5"
         x="0"
         style="fill:black;stroke:none" />
    </pattern>
    <pattern
       inkscape:collect="always"
       patternUnits="userSpaceOnUse"
       width="2.5"
       height="1"
       patternTransform="translate(0,0) scale(10,10)"
       id="Strips1_1.5-25"
       inkscape:stockid="Stripes 1:1.5">
      <rect
         style="fill:black;stroke:none"
         x="0"
         y="-0.5"
         width="1"
         height="2"
         id="rect4493-6" />
    </pattern>
    <pattern
       inkscape:collect="always"
       xlink:href="#Strips1_1.5-25"
       id="pattern5264-9"
       patternTransform="matrix(10,0,0,10,-0.50604,-16.78768)" />
    <pattern
       inkscape:collect="always"
       xlink:href="#pattern5264-9"
       id="pattern3012-6"
       patternTransform="matrix(6.4548816,0,0,3.6930219,37.995659,47.569226)" />
    <pattern
       inkscape:collect="always"
       patternUnits="userSpaceOnUse"
       width="2.5"
       height="1"
       patternTransform="translate(0,0) scale(10,10)"
       id="Strips1_1.5-6"
       inkscape:stockid="Stripes 1:1.5">
      <rect
         style="fill:black;stroke:none"
         x="0"
         y="-0.5"
         width="1"
         height="2"
         id="rect4493-3" />
    </pattern>
    <pattern
       inkscape:collect="always"
       xlink:href="#Strips1_1.5-6"
       id="pattern3020-1"
       patternTransform="matrix(10,0,0,10,-6.5774636,-10.716251)" />
    <pattern
       inkscape:collect="always"
       patternUnits="userSpaceOnUse"
       width="2.5"
       height="1"
       patternTransform="translate(0,0) scale(10,10)"
       id="Strips1_1.5-4-7"
       inkscape:stockid="Stripes 1:1.5">
      <rect
         style="fill:black;stroke:none"
         x="0"
         y="-0.5"
         width="1"
         height="2"
         id="rect4493-7-6" />
    </pattern>
    <pattern
       inkscape:collect="always"
       xlink:href="#Strips1_1.5-4-7"
       id="pattern3020-2"
       patternTransform="matrix(10,0,0,10,-6.5774636,-10.716251)" />
    <pattern
       patternTransform="matrix(10,0,0,10,-6.5774636,-10.716251)"
       id="pattern3020-0"
       xlink:href="#Strips1_1.5-4"
       inkscape:collect="always" />
    <pattern
       inkscape:stockid="Stripes 1:1.5"
       id="Strips1_1.5-4"
       patternTransform="translate(0,0) scale(10,10)"
       height="1"
       width="2.5"
       patternUnits="userSpaceOnUse"
       inkscape:collect="always">
      <rect
         id="rect4493-7"
         height="2"
         width="1"
         y="-0.5"
         x="0"
         style="fill:black;stroke:none" />
    </pattern>
    <pattern
       inkscape:collect="always"
       patternUnits="userSpaceOnUse"
       width="2.5"
       height="1"
       patternTransform="translate(0,0) scale(10,10)"
       id="Strips1_1.5-44"
       inkscape:stockid="Stripes 1:1.5">
      <rect
         style="fill:black;stroke:none"
         x="0"
         y="-0.5"
         width="1"
         height="2"
         id="rect4493-2" />
    </pattern>
    <pattern
       inkscape:collect="always"
       xlink:href="#Strips1_1.5-44"
       id="pattern5264"
       patternTransform="matrix(10,0,0,10,-0.50604,-16.78768)" />
    <pattern
       inkscape:collect="always"
       xlink:href="#pattern5264"
       id="pattern3012"
       patternTransform="matrix(6.4548816,0,0,3.6930219,37.995659,47.569226)" />
    <pattern
       patternTransform="matrix(10,0,0,10,-6.5774636,-10.716251)"
       id="pattern3020-9"
       xlink:href="#Strips1_1.5-4-1"
       inkscape:collect="always" />
    <pattern
       inkscape:stockid="Stripes 1:1.5"
       id="Strips1_1.5-4-1"
       patternTransform="translate(0,0) scale(10,10)"
       height="1"
       width="2.5"
       patternUnits="userSpaceOnUse"
       inkscape:collect="always">
      <rect
         id="rect4493-7-64"
         height="2"
         width="1"
         y="-0.5"
         x="0"
         style="fill:black;stroke:none" />
    </pattern>
  </defs>
  <sodipodi:namedview
     id="base"
     pagecolor="#ffffff"
     bordercolor="#666666"
     borderopacity="1.0"
     inkscape:pageopacity="0.0"
     inkscape:pageshadow="2"
     inkscape:zoom="2.8"
     inkscape:cx="101.84004"
     inkscape:cy="975.54664"
     inkscape:document-units="px"
     inkscape:current-layer="layer1"
     showgrid="false"
     inkscape:window-width="1920"
     inkscape:window-height="1056"
     inkscape:window-x="0"
     inkscape:window-y="24"
     inkscape:window-maximized="1"
     showguides="true"
     inkscape:guide-bbox="true" />
  <metadata
     id="metadata7">
    <rdf:RDF>
      <cc:Work
         rdf:about="">
        <dc:format>image/svg+xml</dc:format>
        <dc:type
           rdf:resource="http://purl.org/dc/dcmitype/StillImage" />
        <dc:title />
      </cc:Work>
    </rdf:RDF>
  </metadata>
  <g
     inkscape:label="Layer 1"
     inkscape:groupmode="layer"
     id="layer1">
    <text
       xml:space="preserve"
       style="font-size:24.68094826px;font-style:normal;font-weight:normal;line-height:125%;letter-spacing:0px;word-spacing:0px;fill:#000000;fill-opacity:1;stroke:none;font-family:Sans"
       x="211.02295"
       y="-8.8793268"
       id="text3813-05-2-1"
       sodipodi:linespacing="125%"><tspan
         sodipodi:role="line"
         id="tspan3815-6-1-8"
         x="211.02295"
         y="-8.8793268">D1''</tspan></text>
    <text
       xml:space="preserve"
       style="font-size:24.54037666px;font-style:normal;font-weight:normal;line-height:125%;letter-spacing:0px;word-spacing:0px;fill:#000000;fill-opacity:1;stroke:none;font-family:Sans"
       x="6.1592302"
       y="-10.205912"
       id="text3813-05-2-3-6"
       sodipodi:linespacing="125%"><tspan
         sodipodi:role="line"
         id="tspan3815-6-1-9-87"
         x="6.1592302"
         y="-10.205912">D1'</tspan></text>
    <text
       xml:space="preserve"
       style="font-size:24.68094826px;font-style:normal;font-weight:normal;line-height:125%;letter-spacing:0px;word-spacing:0px;fill:#000000;fill-opacity:1;stroke:none;font-family:Sans"
       x="7.3468828"
       y="116.65178"
       id="text3813-05-2-1-1"
       sodipodi:linespacing="125%"><tspan
         sodipodi:role="line"
         id="tspan3815-6-1-8-7"
         x="7.3468828"
         y="116.65178">D2'</tspan></text>
    <text
       xml:space="preserve"
       style="font-size:24.54037666px;font-style:normal;font-weight:normal;line-height:125%;letter-spacing:0px;word-spacing:0px;fill:#000000;fill-opacity:1;stroke:none;font-family:Sans"
       x="208.6237"
       y="117.45752"
       id="text3813-05-2-3-6-2"
       sodipodi:linespacing="125%"><tspan
         sodipodi:role="line"
         id="tspan3815-6-1-9-87-1"
         x="208.6237"
         y="117.45752">D2''</tspan></text>
    <path
       sodipodi:type="arc"
       style="fill:none;stroke:#000000;stroke-opacity:1"
       id="path2990-2-1"
       sodipodi:cx="128.28937"
       sodipodi:cy="118.47616"
       sodipodi:rx="39.39595"
       sodipodi:ry="39.39595"
       d="m 167.68532,118.47616 a 39.39595,39.39595 0 1 1 -78.791903,0 39.39595,39.39595 0 1 1 78.791903,0 z"
       transform="matrix(0.74797004,-0.68342629,0.68169523,0.7460755,-85.895259,79.264835)" />
    <path
       sodipodi:type="arc"
       style="fill:none;stroke:#000000;stroke-opacity:1"
       id="path2990-2-8-7"
       sodipodi:cx="128.28937"
       sodipodi:cy="118.47616"
       sodipodi:rx="39.39595"
       sodipodi:ry="39.39595"
       d="m 167.68532,118.47616 a 39.39595,39.39595 0 1 1 -78.791903,0 39.39595,39.39595 0 1 1 78.791903,0 z"
       transform="matrix(0.70965305,0.72057502,-0.72057502,0.70965305,85.735565,-164.54482)" />
    <path
       sodipodi:type="arc"
       style="fill:none;stroke:#000000;stroke-opacity:1"
       id="path2990-2-1-8"
       sodipodi:cx="128.28937"
       sodipodi:cy="118.47616"
       sodipodi:rx="39.39595"
       sodipodi:ry="39.39595"
       d="m 167.68532,118.47616 a 39.39595,39.39595 0 1 1 -78.791903,0 39.39595,39.39595 0 1 1 78.791903,0 z"
       transform="matrix(-0.3240028,-1.1582137,1.0788302,0.18603903,69.335648,199.77969)" />
    <path
       sodipodi:type="arc"
       style="fill:none;stroke:#000000;stroke-opacity:1"
       id="path2990-2-8-6-0-3-1"
       sodipodi:cx="128.28937"
       sodipodi:cy="118.47616"
       sodipodi:rx="39.39595"
       sodipodi:ry="39.39595"
       d="m 167.68532,118.47616 a 39.39595,39.39595 0 1 1 -78.791903,0 39.39595,39.39595 0 1 1 78.791903,0 z"
       transform="matrix(0.70965305,0.72057502,-0.72057502,0.70965305,158.12422,-164.64984)" />
    <path
       style="fill:#e9c6af;fill-opacity:1;stroke:none"
       d="m 127.27403,25.761904 c -2.32513,-6.035536 -3.19598,-13.696729 -2.21521,-19.4879779 0.48776,-2.880128 2.17567,-8.726307 2.51946,-8.726307 0.29299,0 0.98204,1.95475496 1.95134,5.535714 0.35135,1.298046 0.65395,4.254886 0.76754,7.4999999 0.15903,4.54361 0.0745,5.899498 -0.55632,8.928571 -0.4091,1.964286 -1.0541,4.375 -1.43333,5.357143 -0.66221,1.715006 -0.70313,1.75036 -1.03348,0.892857 z"
       id="path3023"
       inkscape:connector-curvature="0" />
    <path
       style="fill:#e9c6af;fill-opacity:1;stroke:none"
       d="M 85.140946,50.584244 C 80.269714,49.701238 72.199927,46.738423 72.199927,45.83296 c 0,-0.487973 4.576021,-2.451319 8.080013,-3.466736 7.680642,-2.225763 15.50953,-1.985668 23.57884,0.72311 3.02855,1.01665 6.19829,2.540289 6.19829,2.97941 0,0.402498 -5.08373,2.726443 -7.5,3.428504 -5.379456,1.563032 -12.379727,1.999941 -17.416124,1.086996 l 0,0 z"
       id="path3025"
       inkscape:connector-curvature="0" />
    <path
       style="fill:#e9c6af;fill-opacity:1;stroke:none"
       d="m 159.43095,50.746167 c -12.55762,-1.563055 -23.5192,-8.831781 -29.66417,-19.670593 -0.62605,-1.104268 -1.13828,-2.094137 -1.13828,-2.199709 0,-0.57508 5.33227,-1.057958 9.52677,-0.862721 9.80369,0.456321 19.71068,4.43455 29.95026,12.026767 3.37865,2.505127 9.45154,7.76863 9.45154,8.191853 0,0.135399 -0.76339,0.512116 -1.69643,0.837149 -4.34904,1.515037 -11.70216,2.265693 -16.42969,1.677254 z"
       id="path3031"
       inkscape:connector-curvature="0" />
    <path
       style="fill:#e9c6af;fill-opacity:1;stroke:none"
       d="m 126.98214,90.831425 c -8.38341,-10.70738 -13.4987,-22.420477 -14.7695,-33.819521 -0.394,-3.534242 -0.18206,-8.960322 0.36315,-9.297283 0.50568,-0.312528 5.59682,4.027587 7.90631,6.740006 8.31904,9.770412 11.37391,22.762438 8.26366,35.144398 -0.30868,1.22887 -0.66224,2.22541 -0.78568,2.21454 -0.12344,-0.0109 -0.56351,-0.45283 -0.97794,-0.98214 l 0,0 z"
       id="path3033"
       inkscape:connector-curvature="0" />
    <path
       style="fill:#e9c6af;fill-opacity:1;stroke:none"
       d="m 113.27136,43.996325 c 0,-0.940833 1.98496,-5.015335 3.44035,-7.06195 0.86843,-1.221212 2.48873,-2.961481 3.60067,-3.867263 2.0776,-1.692398 5.38635,-3.568306 5.7147,-3.239962 0.24073,0.240728 -1.73308,3.442286 -3.65887,5.934754 -2.72667,3.529036 -9.09685,9.295285 -9.09685,8.234421 z"
       id="path3035"
       inkscape:connector-curvature="0" />
  </g>
</svg>
