<?xml version="1.0" encoding="UTF-8" standalone="no"?>
<!-- Created with Inkscape (http://www.inkscape.org/) -->

<svg
   xmlns:dc="http://purl.org/dc/elements/1.1/"
   xmlns:cc="http://creativecommons.org/ns#"
   xmlns:rdf="http://www.w3.org/1999/02/22-rdf-syntax-ns#"
   xmlns:svg="http://www.w3.org/2000/svg"
   xmlns="http://www.w3.org/2000/svg"
   xmlns:xlink="http://www.w3.org/1999/xlink"
   xmlns:sodipodi="http://sodipodi.sourceforge.net/DTD/sodipodi-0.dtd"
   xmlns:inkscape="http://www.inkscape.org/namespaces/inkscape"
   width="744.09448819"
   height="1052.3622047"
   id="svg2"
   version="1.1"
   inkscape:version="0.48.3.1 r9886"
   sodipodi:docname="CaseDifferentiation_2SameDim_3DimSomeDePairPartnered_3ChainingWith2ForeignDim.svg">
  <defs
     id="defs4">
    <pattern
       inkscape:collect="always"
       xlink:href="#pattern3012-6"
       id="pattern3148"
       patternTransform="matrix(6.4548816,0,0,3.6930219,43.769836,152.38962)" />
    <pattern
       patternTransform="matrix(10,0,0,10,-6.5774636,-10.716251)"
       id="pattern3020"
       xlink:href="#Strips1_1.5"
       inkscape:collect="always" />
    <pattern
       inkscape:stockid="Stripes 1:1.5"
       id="Strips1_1.5"
       patternTransform="translate(0,0) scale(10,10)"
       height="1"
       width="2.5"
       patternUnits="userSpaceOnUse"
       inkscape:collect="always">
      <rect
         id="rect4493"
         height="2"
         width="1"
         y="-0.5"
         x="0"
         style="fill:black;stroke:none" />
    </pattern>
    <pattern
       inkscape:collect="always"
       patternUnits="userSpaceOnUse"
       width="2.5"
       height="1"
       patternTransform="translate(0,0) scale(10,10)"
       id="Strips1_1.5-25"
       inkscape:stockid="Stripes 1:1.5">
      <rect
         style="fill:black;stroke:none"
         x="0"
         y="-0.5"
         width="1"
         height="2"
         id="rect4493-6" />
    </pattern>
    <pattern
       inkscape:collect="always"
       xlink:href="#Strips1_1.5-25"
       id="pattern5264-9"
       patternTransform="matrix(10,0,0,10,-0.50604,-16.78768)" />
    <pattern
       inkscape:collect="always"
       xlink:href="#pattern5264-9"
       id="pattern3012-6"
       patternTransform="matrix(6.4548816,0,0,3.6930219,37.995659,47.569226)" />
    <pattern
       inkscape:collect="always"
       patternUnits="userSpaceOnUse"
       width="2.5"
       height="1"
       patternTransform="translate(0,0) scale(10,10)"
       id="Strips1_1.5-6"
       inkscape:stockid="Stripes 1:1.5">
      <rect
         style="fill:black;stroke:none"
         x="0"
         y="-0.5"
         width="1"
         height="2"
         id="rect4493-3" />
    </pattern>
    <pattern
       inkscape:collect="always"
       xlink:href="#Strips1_1.5-6"
       id="pattern3020-1"
       patternTransform="matrix(10,0,0,10,-6.5774636,-10.716251)" />
    <pattern
       inkscape:collect="always"
       patternUnits="userSpaceOnUse"
       width="2.5"
       height="1"
       patternTransform="translate(0,0) scale(10,10)"
       id="Strips1_1.5-4-7"
       inkscape:stockid="Stripes 1:1.5">
      <rect
         style="fill:black;stroke:none"
         x="0"
         y="-0.5"
         width="1"
         height="2"
         id="rect4493-7-6" />
    </pattern>
    <pattern
       inkscape:collect="always"
       xlink:href="#Strips1_1.5-4-7"
       id="pattern3020-2"
       patternTransform="matrix(10,0,0,10,-6.5774636,-10.716251)" />
    <pattern
       patternTransform="matrix(10,0,0,10,-6.5774636,-10.716251)"
       id="pattern3020-0"
       xlink:href="#Strips1_1.5-4"
       inkscape:collect="always" />
    <pattern
       inkscape:stockid="Stripes 1:1.5"
       id="Strips1_1.5-4"
       patternTransform="translate(0,0) scale(10,10)"
       height="1"
       width="2.5"
       patternUnits="userSpaceOnUse"
       inkscape:collect="always">
      <rect
         id="rect4493-7"
         height="2"
         width="1"
         y="-0.5"
         x="0"
         style="fill:black;stroke:none" />
    </pattern>
    <pattern
       inkscape:collect="always"
       patternUnits="userSpaceOnUse"
       width="2.5"
       height="1"
       patternTransform="translate(0,0) scale(10,10)"
       id="Strips1_1.5-44"
       inkscape:stockid="Stripes 1:1.5">
      <rect
         style="fill:black;stroke:none"
         x="0"
         y="-0.5"
         width="1"
         height="2"
         id="rect4493-2" />
    </pattern>
    <pattern
       inkscape:collect="always"
       xlink:href="#Strips1_1.5-44"
       id="pattern5264"
       patternTransform="matrix(10,0,0,10,-0.50604,-16.78768)" />
    <pattern
       inkscape:collect="always"
       xlink:href="#pattern5264"
       id="pattern3012"
       patternTransform="matrix(6.4548816,0,0,3.6930219,37.995659,47.569226)" />
  </defs>
  <sodipodi:namedview
     id="base"
     pagecolor="#ffffff"
     bordercolor="#666666"
     borderopacity="1.0"
     inkscape:pageopacity="0.0"
     inkscape:pageshadow="2"
     inkscape:zoom="2.8"
     inkscape:cx="108.2763"
     inkscape:cy="903.54486"
     inkscape:document-units="px"
     inkscape:current-layer="layer1"
     showgrid="false"
     inkscape:window-width="1920"
     inkscape:window-height="1056"
     inkscape:window-x="0"
     inkscape:window-y="24"
     inkscape:window-maximized="1"
     showguides="true"
     inkscape:guide-bbox="true" />
  <metadata
     id="metadata7">
    <rdf:RDF>
      <cc:Work
         rdf:about="">
        <dc:format>image/svg+xml</dc:format>
        <dc:type
           rdf:resource="http://purl.org/dc/dcmitype/StillImage" />
        <dc:title />
      </cc:Work>
    </rdf:RDF>
  </metadata>
  <g
     inkscape:label="Layer 1"
     inkscape:groupmode="layer"
     id="layer1">
    <text
       xml:space="preserve"
       style="font-size:24.68094826px;font-style:normal;font-weight:normal;line-height:125%;letter-spacing:0px;word-spacing:0px;fill:#000000;fill-opacity:1;stroke:none;font-family:Sans"
       x="19.070892"
       y="55.101055"
       id="text3813-05-2-1"
       sodipodi:linespacing="125%"><tspan
         sodipodi:role="line"
         id="tspan3815-6-1-8"
         x="19.070892"
         y="55.101055">D1'</tspan></text>
    <text
       xml:space="preserve"
       style="font-size:24.54037666px;font-style:normal;font-weight:normal;line-height:125%;letter-spacing:0px;word-spacing:0px;fill:#000000;fill-opacity:1;stroke:none;font-family:Sans"
       x="194.12253"
       y="-4.114233"
       id="text3813-05-2-3-6"
       sodipodi:linespacing="125%"><tspan
         sodipodi:role="line"
         id="tspan3815-6-1-9-87"
         x="194.12253"
         y="-4.114233">D1''</tspan></text>
    <path
       sodipodi:type="arc"
       style="fill:none;stroke:#000000;stroke-opacity:1"
       id="path2990"
       sodipodi:cx="128.28937"
       sodipodi:cy="118.47616"
       sodipodi:rx="39.39595"
       sodipodi:ry="39.39595"
       d="m 167.68532,118.47616 a 39.39595,39.39595 0 1 1 -78.791903,0 39.39595,39.39595 0 1 1 78.791903,0 z"
       transform="matrix(-1,0,0,-1,278.93961,229.72409)" />
    <path
       sodipodi:type="arc"
       style="fill:none;stroke:#000000;stroke-opacity:1"
       id="path2990-2"
       sodipodi:cx="128.28937"
       sodipodi:cy="118.47616"
       sodipodi:rx="39.39595"
       sodipodi:ry="39.39595"
       d="m 167.68532,118.47616 a 39.39595,39.39595 0 1 1 -78.791903,0 39.39595,39.39595 0 1 1 78.791903,0 z"
       transform="matrix(-1,0,0,-1,197.8301,229.93329)" />
    <path
       sodipodi:type="arc"
       style="fill:none;stroke:#000000;stroke-opacity:1"
       id="path2990-2-9"
       sodipodi:cx="128.28937"
       sodipodi:cy="118.47616"
       sodipodi:rx="39.39595"
       sodipodi:ry="39.39595"
       d="m 167.68532,118.47616 a 39.39595,39.39595 0 1 1 -78.791903,0 39.39595,39.39595 0 1 1 78.791903,0 z"
       transform="matrix(-1,0,0,-1,237.75323,176.54494)" />
    <path
       sodipodi:type="arc"
       style="fill:none;stroke:#000000;stroke-opacity:1"
       id="path2990-1-7"
       sodipodi:cx="128.28937"
       sodipodi:cy="118.47616"
       sodipodi:rx="39.39595"
       sodipodi:ry="39.39595"
       d="m 167.68532,118.47616 a 39.39595,39.39595 0 1 1 -78.791903,0 39.39595,39.39595 0 1 1 78.791903,0 z"
       transform="translate(85.795053,-76.09045)" />
    <text
       xml:space="preserve"
       style="font-size:24.68094826px;font-style:normal;font-weight:normal;line-height:125%;letter-spacing:0px;word-spacing:0px;fill:#000000;fill-opacity:1;stroke:none;font-family:Sans"
       x="-17.399202"
       y="119.16769"
       id="text3813-05-2-1-1"
       sodipodi:linespacing="125%"><tspan
         sodipodi:role="line"
         id="tspan3815-6-1-8-7"
         x="-17.399202"
         y="119.16769">D2'</tspan></text>
    <text
       xml:space="preserve"
       style="font-size:24.54037666px;font-style:normal;font-weight:normal;line-height:125%;letter-spacing:0px;word-spacing:0px;fill:#000000;fill-opacity:1;stroke:none;font-family:Sans"
       x="194.72673"
       y="133.41797"
       id="text3813-05-2-3-6-2"
       sodipodi:linespacing="125%"><tspan
         sodipodi:role="line"
         id="tspan3815-6-1-9-87-1"
         x="194.72673"
         y="133.41797">D2''</tspan></text>
    <rect
       style="fill:none;stroke:#000000;stroke-width:1;stroke-miterlimit:4;stroke-opacity:1;stroke-dasharray:8,2,1,2;stroke-dashoffset:0"
       id="rect3035"
       width="75.714287"
       height="73.928574"
       x="46.297676"
       y="139.94884"
       ry="20.725973" />
    <rect
       style="fill:none;stroke:#000000;stroke-width:1;stroke-miterlimit:4;stroke-opacity:1;stroke-dasharray:8,2,1,2;stroke-dashoffset:0"
       id="rect3035-0"
       width="75.714287"
       height="73.928574"
       x="97.806824"
       y="139.62233"
       ry="20.725973" />
    <rect
       style="fill:none;stroke:#000000;stroke-width:1;stroke-miterlimit:4;stroke-opacity:1;stroke-dasharray:8,2,1,2;stroke-dashoffset:0"
       id="rect3035-0-5"
       width="75.714287"
       height="73.928574"
       x="240.23068"
       y="4.9230232"
       ry="20.725973" />
    <text
       xml:space="preserve"
       style="font-size:24.54037666px;font-style:normal;font-weight:normal;line-height:125%;letter-spacing:0px;word-spacing:0px;fill:#000000;fill-opacity:1;stroke:none;font-family:Sans"
       x="126.14387"
       y="242.74033"
       id="text3813-05-2-3-6-2-6"
       sodipodi:linespacing="125%"><tspan
         sodipodi:role="line"
         id="tspan3815-6-1-9-87-1-7"
         x="126.14387"
         y="242.74033"
         style="font-style:italic;-inkscape-font-specification:Sans Italic">D4''</tspan></text>
    <text
       xml:space="preserve"
       style="font-size:24.54037666px;font-style:normal;font-weight:normal;line-height:125%;letter-spacing:0px;word-spacing:0px;fill:#000000;fill-opacity:1;stroke:none;font-family:Sans"
       x="46.698952"
       y="241.92555"
       id="text3813-05-2-3-6-2-6-2"
       sodipodi:linespacing="125%"><tspan
         sodipodi:role="line"
         id="tspan3815-6-1-9-87-1-7-3"
         x="46.698952"
         y="241.92555"
         style="font-style:italic;-inkscape-font-specification:Sans Italic">D3'</tspan></text>
    <text
       xml:space="preserve"
       style="font-size:24.54037666px;font-style:normal;font-weight:normal;line-height:125%;letter-spacing:0px;word-spacing:0px;fill:#000000;fill-opacity:1;stroke:none;font-family:Sans"
       x="326.85547"
       y="50.327248"
       id="text3813-05-2-3-6-2-6-5"
       sodipodi:linespacing="125%"><tspan
         sodipodi:role="line"
         id="tspan3815-6-1-9-87-1-7-6"
         x="326.85547"
         y="50.327248"
         style="font-style:italic;-inkscape-font-specification:Sans Italic">D5''</tspan></text>
    <path
       style="fill:#e9c6af;fill-opacity:1;stroke:none;stroke-width:0.25253814000000002;stroke-linecap:round;stroke-linejoin:round;stroke-miterlimit:4;stroke-opacity:1;stroke-dasharray:0.75761440999999985, 0.25253814000000002;stroke-dashoffset:0"
       d="M 101.63622,95.993634 C 90.060996,93.568683 80.026045,85.825768 74.81229,75.29643 c -1.274901,-2.574704 -1.320857,-2.541347 2.444158,-1.774085 11.803481,2.405396 21.950853,10.31261 27.144582,21.152075 l 0.87727,1.830901 -0.68462,-0.01777 c -0.37654,-0.0098 -1.70739,-0.232037 -2.95746,-0.493919 z"
       id="path3908"
       inkscape:connector-curvature="0" />
    <path
       style="fill:#e9c6af;fill-opacity:1;stroke:none;stroke-width:0.25253814000000002;stroke-linecap:round;stroke-linejoin:round;stroke-miterlimit:4;stroke-opacity:1;stroke-dasharray:0.75761440999999996, 0.25253814000000002;stroke-dashoffset:0"
       d="m 114.89447,96.343409 c 0,-0.05678 0.41028,-0.924303 0.91173,-1.927832 4.63556,-9.276899 11.8896,-15.849846 21.56417,-19.539471 1.79652,-0.685148 6.36548,-1.855984 7.24463,-1.856505 0.54737,-3.23e-4 0.5455,0.01483 -0.20622,1.672722 -4.41866,9.745147 -14.37273,18.048123 -24.94234,20.805128 -1.59925,0.417152 -4.57197,0.967199 -4.57197,0.845958 z"
       id="path3910"
       inkscape:connector-curvature="0" />
    <path
       style="fill:#e9c6af;fill-opacity:1;stroke:none"
       d="m 251.67247,46.325371 c -0.64385,5.72592 -2.91785,11.8797 -6.22856,16.85539 -1.07666,1.61813 -2.10417,3.03265 -2.28335,3.14339 -0.17918,0.11074 -0.53417,-0.48654 -0.78887,-1.32729 -0.35686,-1.17796 -0.4631,-6.36247 -0.4631,-22.60006 0,-19.5102 0.0485,-21.21056 0.65462,-22.9492 0.36004,-1.03277 0.78805,-1.79531 0.95113,-1.69452 0.61517,0.3802 3.73891,5.43831 4.8688,7.88382 1.68633,3.64983 2.90501,8.15659 3.33273,12.32458 0.41317,4.02628 0.41167,4.31681 -0.0434,8.36389 z"
       id="path3912-4-2"
       inkscape:connector-curvature="0" />
    <path
       style="fill:#e9c6af;fill-opacity:1;stroke:none"
       d="m 146.70487,149.79683 c -7.9668,-1.0381 -15.94202,-4.38982 -20.60264,-8.65861 l -1.11564,-1.02185 15.27856,0.0842 c 17.396,0.0958 17.11262,0.0654 21.59201,2.31797 1.97063,0.99099 5.11889,3.24098 5.16238,3.68944 0.0312,0.32121 -3.8439,1.79644 -6.56095,2.49774 -4.09349,1.05658 -10.26282,1.54603 -13.75372,1.09116 z"
       id="path3969"
       inkscape:connector-curvature="0" />
    <path
       style="fill:#e9c6af;fill-opacity:1;stroke:none"
       d="m 65.261324,149.96494 c -3.67793,-0.4456 -9.59573,-2.09065 -11.938594,-3.31873 -1.112089,-0.58294 4.778155,-4.32873 8.529329,-5.42407 1.359122,-0.39686 3.141346,-0.44994 17.298862,-0.51522 l 15.783634,-0.0728 -0.883884,0.77399 c -1.750955,1.53326 -5.987772,4.15118 -8.624298,5.32893 -3.035461,1.35597 -6.139374,2.3154 -9.302513,2.87545 -2.67392,0.47343 -8.34508,0.65743 -10.862536,0.35242 z"
       id="path3971"
       inkscape:connector-curvature="0" />
    <path
       style="fill:#e9c6af;fill-opacity:1;stroke:none"
       d="m 108.69788,210.29095 c -4.0326,-2.29291 -7.12291,-5.84046 -8.821967,-10.12727 -1.423499,-3.59156 -1.406235,-3.29822 -1.400853,-23.80222 0.0049,-18.81963 0.0086,-18.9531 0.568235,-20.93802 0.991585,-3.51673 2.482975,-6.21654 4.887255,-8.8472 1.10463,-1.20864 4.39087,-3.70311 5.37711,-4.08156 0.61221,-0.23493 3.72933,1.73476 5.72571,3.61804 3.02789,2.85636 5.09769,6.57774 5.92095,10.64554 0.33554,1.65793 0.37803,4.57525 0.30574,20.99216 -0.0945,21.45685 0.0241,20.07649 -2.09363,24.36993 -1.19782,2.42843 -2.8112,4.48994 -4.9669,6.34653 -1.1636,1.00214 -3.62163,2.61383 -3.98642,2.61383 -0.0695,0 -0.7513,-0.35539 -1.51523,-0.78976 z"
       id="path3973"
       inkscape:connector-curvature="0" />
  </g>
</svg>
