<?xml version="1.0" encoding="UTF-8" standalone="no"?>
<!-- Created with Inkscape (http://www.inkscape.org/) -->

<svg
   xmlns:dc="http://purl.org/dc/elements/1.1/"
   xmlns:cc="http://creativecommons.org/ns#"
   xmlns:rdf="http://www.w3.org/1999/02/22-rdf-syntax-ns#"
   xmlns:svg="http://www.w3.org/2000/svg"
   xmlns="http://www.w3.org/2000/svg"
   xmlns:xlink="http://www.w3.org/1999/xlink"
   xmlns:sodipodi="http://sodipodi.sourceforge.net/DTD/sodipodi-0.dtd"
   xmlns:inkscape="http://www.inkscape.org/namespaces/inkscape"
   width="744.09448819"
   height="1052.3622047"
   id="svg2"
   version="1.1"
   inkscape:version="0.48.3.1 r9886"
   sodipodi:docname="CaseDifferentiation_2SameDim_Cross_1DimAllDePairPartnered_Cross_1DimAllDePairPartnered_BothDSDimShareSameDe.svg">
  <defs
     id="defs4">
    <pattern
       inkscape:collect="always"
       xlink:href="#pattern3012-6"
       id="pattern3148"
       patternTransform="matrix(6.4548816,0,0,3.6930219,43.769836,152.38962)" />
    <pattern
       patternTransform="matrix(10,0,0,10,-6.5774636,-10.716251)"
       id="pattern3020"
       xlink:href="#Strips1_1.5"
       inkscape:collect="always" />
    <pattern
       inkscape:stockid="Stripes 1:1.5"
       id="Strips1_1.5"
       patternTransform="translate(0,0) scale(10,10)"
       height="1"
       width="2.5"
       patternUnits="userSpaceOnUse"
       inkscape:collect="always">
      <rect
         id="rect4493"
         height="2"
         width="1"
         y="-0.5"
         x="0"
         style="fill:black;stroke:none" />
    </pattern>
    <pattern
       inkscape:collect="always"
       patternUnits="userSpaceOnUse"
       width="2.5"
       height="1"
       patternTransform="translate(0,0) scale(10,10)"
       id="Strips1_1.5-25"
       inkscape:stockid="Stripes 1:1.5">
      <rect
         style="fill:black;stroke:none"
         x="0"
         y="-0.5"
         width="1"
         height="2"
         id="rect4493-6" />
    </pattern>
    <pattern
       inkscape:collect="always"
       xlink:href="#Strips1_1.5-25"
       id="pattern5264-9"
       patternTransform="matrix(10,0,0,10,-0.50604,-16.78768)" />
    <pattern
       inkscape:collect="always"
       xlink:href="#pattern5264-9"
       id="pattern3012-6"
       patternTransform="matrix(6.4548816,0,0,3.6930219,37.995659,47.569226)" />
    <pattern
       inkscape:collect="always"
       patternUnits="userSpaceOnUse"
       width="2.5"
       height="1"
       patternTransform="translate(0,0) scale(10,10)"
       id="Strips1_1.5-6"
       inkscape:stockid="Stripes 1:1.5">
      <rect
         style="fill:black;stroke:none"
         x="0"
         y="-0.5"
         width="1"
         height="2"
         id="rect4493-3" />
    </pattern>
    <pattern
       inkscape:collect="always"
       xlink:href="#Strips1_1.5-6"
       id="pattern3020-1"
       patternTransform="matrix(10,0,0,10,-6.5774636,-10.716251)" />
    <pattern
       inkscape:collect="always"
       patternUnits="userSpaceOnUse"
       width="2.5"
       height="1"
       patternTransform="translate(0,0) scale(10,10)"
       id="Strips1_1.5-4-7"
       inkscape:stockid="Stripes 1:1.5">
      <rect
         style="fill:black;stroke:none"
         x="0"
         y="-0.5"
         width="1"
         height="2"
         id="rect4493-7-6" />
    </pattern>
    <pattern
       inkscape:collect="always"
       xlink:href="#Strips1_1.5-4-7"
       id="pattern3020-2"
       patternTransform="matrix(10,0,0,10,-6.5774636,-10.716251)" />
    <pattern
       patternTransform="matrix(10,0,0,10,-6.5774636,-10.716251)"
       id="pattern3020-0"
       xlink:href="#Strips1_1.5-4"
       inkscape:collect="always" />
    <pattern
       inkscape:stockid="Stripes 1:1.5"
       id="Strips1_1.5-4"
       patternTransform="translate(0,0) scale(10,10)"
       height="1"
       width="2.5"
       patternUnits="userSpaceOnUse"
       inkscape:collect="always">
      <rect
         id="rect4493-7"
         height="2"
         width="1"
         y="-0.5"
         x="0"
         style="fill:black;stroke:none" />
    </pattern>
    <pattern
       inkscape:collect="always"
       patternUnits="userSpaceOnUse"
       width="2.5"
       height="1"
       patternTransform="translate(0,0) scale(10,10)"
       id="Strips1_1.5-44"
       inkscape:stockid="Stripes 1:1.5">
      <rect
         style="fill:black;stroke:none"
         x="0"
         y="-0.5"
         width="1"
         height="2"
         id="rect4493-2" />
    </pattern>
    <pattern
       inkscape:collect="always"
       xlink:href="#Strips1_1.5-44"
       id="pattern5264"
       patternTransform="matrix(10,0,0,10,-0.50604,-16.78768)" />
    <pattern
       inkscape:collect="always"
       xlink:href="#pattern5264"
       id="pattern3012"
       patternTransform="matrix(6.4548816,0,0,3.6930219,37.995659,47.569226)" />
    <pattern
       patternTransform="matrix(10,0,0,10,-6.5774636,-10.716251)"
       id="pattern3020-9"
       xlink:href="#Strips1_1.5-4-1"
       inkscape:collect="always" />
    <pattern
       inkscape:stockid="Stripes 1:1.5"
       id="Strips1_1.5-4-1"
       patternTransform="translate(0,0) scale(10,10)"
       height="1"
       width="2.5"
       patternUnits="userSpaceOnUse"
       inkscape:collect="always">
      <rect
         id="rect4493-7-64"
         height="2"
         width="1"
         y="-0.5"
         x="0"
         style="fill:black;stroke:none" />
    </pattern>
  </defs>
  <sodipodi:namedview
     id="base"
     pagecolor="#ffffff"
     bordercolor="#666666"
     borderopacity="1.0"
     inkscape:pageopacity="0.0"
     inkscape:pageshadow="2"
     inkscape:zoom="3.959798"
     inkscape:cx="145.53469"
     inkscape:cy="1003.5505"
     inkscape:document-units="px"
     inkscape:current-layer="layer1"
     showgrid="false"
     inkscape:window-width="1920"
     inkscape:window-height="1056"
     inkscape:window-x="0"
     inkscape:window-y="24"
     inkscape:window-maximized="1"
     showguides="true"
     inkscape:guide-bbox="true" />
  <metadata
     id="metadata7">
    <rdf:RDF>
      <cc:Work
         rdf:about="">
        <dc:format>image/svg+xml</dc:format>
        <dc:type
           rdf:resource="http://purl.org/dc/dcmitype/StillImage" />
        <dc:title />
      </cc:Work>
    </rdf:RDF>
  </metadata>
  <g
     inkscape:label="Layer 1"
     inkscape:groupmode="layer"
     id="layer1">
    <text
       xml:space="preserve"
       style="font-size:24.68094826px;font-style:normal;font-weight:normal;line-height:125%;letter-spacing:0px;word-spacing:0px;fill:#000000;fill-opacity:1;stroke:none;font-family:Sans"
       x="26.088121"
       y="-16.289818"
       id="text3813-05-2-1"
       sodipodi:linespacing="125%"><tspan
         sodipodi:role="line"
         id="tspan3815-6-1-8"
         x="26.088121"
         y="-16.289818">D1'</tspan></text>
    <text
       xml:space="preserve"
       style="font-size:24.54037666px;font-style:normal;font-weight:normal;line-height:125%;letter-spacing:0px;word-spacing:0px;fill:#000000;fill-opacity:1;stroke:none;font-family:Sans"
       x="227.00613"
       y="-17.148495"
       id="text3813-05-2-3-6"
       sodipodi:linespacing="125%"><tspan
         sodipodi:role="line"
         id="tspan3815-6-1-9-87"
         x="227.00613"
         y="-17.148495">D1''</tspan></text>
    <text
       xml:space="preserve"
       style="font-size:24.68094826px;font-style:normal;font-weight:normal;line-height:125%;letter-spacing:0px;word-spacing:0px;fill:#000000;fill-opacity:1;stroke:none;font-family:Sans"
       x="27.675421"
       y="106.15517"
       id="text3813-05-2-1-1"
       sodipodi:linespacing="125%"><tspan
         sodipodi:role="line"
         id="tspan3815-6-1-8-7"
         x="27.675421"
         y="106.15517">D2'</tspan></text>
    <text
       xml:space="preserve"
       style="font-size:24.54037666px;font-style:normal;font-weight:normal;line-height:125%;letter-spacing:0px;word-spacing:0px;fill:#000000;fill-opacity:1;stroke:none;font-family:Sans"
       x="225.89374"
       y="107.00787"
       id="text3813-05-2-3-6-2"
       sodipodi:linespacing="125%"><tspan
         sodipodi:role="line"
         id="tspan3815-6-1-9-87-1"
         x="225.89374"
         y="107.00787">D2''</tspan></text>
    <path
       sodipodi:type="arc"
       style="fill:none;stroke:#000000;stroke-opacity:1"
       id="path2990-2-1"
       sodipodi:cx="128.28937"
       sodipodi:cy="118.47616"
       sodipodi:rx="39.39595"
       sodipodi:ry="39.39595"
       d="m 167.68532,118.47616 a 39.39595,39.39595 0 1 1 -78.791903,0 39.39595,39.39595 0 1 1 78.791903,0 z"
       transform="matrix(0.67844532,0.75249095,-0.75058495,0.67672687,115.94847,-106.65142)" />
    <path
       sodipodi:type="arc"
       style="fill:none;stroke:#000000;stroke-opacity:1"
       id="path2990-2-8-7"
       sodipodi:cx="128.28937"
       sodipodi:cy="118.47616"
       sodipodi:rx="39.39595"
       sodipodi:ry="39.39595"
       d="m 167.68532,118.47616 a 39.39595,39.39595 0 1 1 -78.791903,0 39.39595,39.39595 0 1 1 78.791903,0 z"
       transform="matrix(-0.72527066,0.70485339,-0.70485339,-0.72527066,354.33287,65.780178)" />
    <path
       style="fill:#e9c6af;fill-opacity:1;stroke:none"
       d="m 144.14124,89.829054 c -2.7557,-4.786686 -4.74698,-11.195381 -5.16293,-16.616291 -0.41712,-5.436049 0.59227,-12.378483 2.52353,-17.356363 0.8501,-2.191197 4.12851,-8.277534 4.44974,-8.260915 0.28644,0.01483 2.78847,4.432594 3.74206,6.607273 3.80183,8.670082 4.25434,18.224333 1.3127,27.716214 -1.29839,4.189563 -4.91201,11.031652 -5.44491,10.309491 -0.0972,-0.131729 -0.73629,-1.211467 -1.42019,-2.399409 z"
       id="path3819"
       inkscape:connector-curvature="0" />
    <path
       sodipodi:type="arc"
       style="fill:none;stroke:#000000;stroke-opacity:1"
       id="path2990-2-8-6-0-5"
       sodipodi:cx="128.28937"
       sodipodi:cy="118.47616"
       sodipodi:rx="39.39595"
       sodipodi:ry="39.39595"
       d="m 167.68532,118.47616 a 39.39595,39.39595 0 1 1 -78.791903,0 39.39595,39.39595 0 1 1 78.791903,0 z"
       transform="matrix(-0.72527066,0.70485339,-0.70485339,-0.72527066,290.49332,-0.88657062)" />
    <path
       sodipodi:type="arc"
       style="fill:none;stroke:#000000;stroke-opacity:1"
       id="path2990-2-8-6-0-3-1"
       sodipodi:cx="128.28937"
       sodipodi:cy="118.47616"
       sodipodi:rx="39.39595"
       sodipodi:ry="39.39595"
       d="m 167.68532,118.47616 a 39.39595,39.39595 0 1 1 -78.791903,0 39.39595,39.39595 0 1 1 78.791903,0 z"
       transform="matrix(-0.72527066,0.70485339,-0.70485339,-0.72527066,354.54644,-0.63365062)" />
    <path
       style="fill:#e9c6af;fill-opacity:1;stroke:none"
       d="m 144.20463,23.7145 c -2.7557,-4.786686 -4.74698,-11.195381 -5.16293,-16.6162911 -0.41712,-5.436049 0.59227,-12.378483 2.52353,-17.3563629 0.8501,-2.191197 4.12851,-8.277534 4.44974,-8.260915 0.28644,0.01483 2.78847,4.432594 3.74206,6.607273 3.80183,8.6700819 4.25434,18.2243329 1.3127,27.716214 -1.29839,4.189563 -4.91201,11.031652 -5.44491,10.309491 -0.0972,-0.131729 -0.73629,-1.211467 -1.42019,-2.399409 z"
       id="path3819-8"
       inkscape:connector-curvature="0" />
    <path
       style="fill:#e9c6af;stroke:none"
       d="m 107.72973,42.261162 c -4.88432,-0.866993 -10.075438,-2.694489 -13.216556,-4.65279 l -1.347266,-0.83994 2.10488,-1.110243 c 9.950452,-5.248482 20.717052,-6.183462 31.212322,-2.710504 2.71699,0.899073 8.02436,3.471278 7.98193,3.868425 -0.0448,0.419545 -5.42674,3.041767 -7.95442,3.87562 -6.13295,2.023191 -12.99438,2.59657 -18.78089,1.569432 z"
       id="path3087"
       inkscape:connector-curvature="0" />
    <path
       style="fill:#e9c6af;fill-opacity:1;stroke:none"
       d="m 173.76845,42.8309 c -0.34724,-0.05699 -1.6535,-0.27358 -2.90279,-0.481321 -1.2493,-0.20774 -3.63579,-0.831499 -5.30331,-1.38613 -2.9639,-0.985824 -7.96131,-3.404637 -8.13967,-3.939714 -0.11991,-0.359741 5.6004,-3.140816 8.13828,-3.956635 8.08134,-2.597791 16.86568,-2.557791 24.6841,0.1124 2.43091,0.830219 5.82594,2.366561 7.375,3.337383 l 0.99691,0.624779 -0.87064,0.540142 c -3.87034,2.40115 -9.66649,4.360849 -14.96791,5.060706 -1.88855,0.249313 -7.68302,0.306159 -9.00997,0.08839 z"
       id="path3089"
       inkscape:connector-curvature="0" />
  </g>
</svg>
